<svg viewBox="0 0 512 512" fill="none" xmlns="http://www.w3.org/2000/svg">
  <rect width="512" height="512" rx="112" fill="#1677FF"/>
  <path d="M200 160H280C311.371 160 336 184.629 336 216C336 237.08 325.2 255.52 308.768 266.448C332.048 274.432 348 298.48 348 328C348 361.137 321.49 388 288 388H200V160Z" fill="white"/>
  <path d="M240 200V248H280C293.255 248 304 237.255 304 224C304 210.745 293.255 200 280 200H240Z" fill="#1677FF"/>
  <path d="M240 288V348H288C303.464 348 316 335.464 316 320C316 304.536 303.464 292 288 292H240V288Z" fill="#1677FF"/>
</svg>
